{"title":"The Turning 2013 BRRip XviD titler","uid":9704517,"size":1922970338,"categoryP":"video","categoryS":"movies","magnet":"?xt=urn:btih:622b2ddcf0a1bd3dc2d2254e5e4cfb99c989df60&amp;dn=The+Turning+2013+BRRip+XviD+titler&amp;tr=udp%3A%2F%2Ftracker.openbittorrent.com%3A80&amp;tr=udp%3A%2F%2Fopen.demonii.com%3A1337&amp;tr=udp%3A%2F%2Ftracker.coppersurfer.tk%3A6969&amp;tr=udp%3A%2F%2Fexodus.desync.com%3A6969","seeders":1,"leechers":0,"uploader":"movieZ.freak","files":4,"time":1394047669,"description":"SOURCE: The Turning 2013 720p BluRay x264 - aAF\n\n\n\n &lt;a href=&quot;\nhttp://www.imdb.com/title/tt2322641/&quot; rel=&quot;nofollow&quot; target=&quot;_NEW&quot;&gt;\nhttp://www.imdb.com/title/tt2322641/&lt;/a&gt;\n\n\n &lt;a href=&quot;\nhttp://www.rottentomatoes.com/m/the_turning/&quot; rel=&quot;nofollow&quot; target=&quot;_NEW&quot;&gt;\nhttp://www.rottentomatoes.com/m/the_turning/&lt;/a&gt;\n\n\n &lt;a href=&quot;\nhttp://en.wikipedia.org/wiki/The_Turning_%282013_film%29&quot; rel=&quot;nofollow&quot; target=&quot;_NEW&quot;&gt;\nhttp://en.wikipedia.org/wiki/The_Turning_%282013_film%29&lt;/a&gt;\n\n\n\n- SAMPLE: Yes\n\n\n- SUBTITLE: English\n\n\n- LANGUAGE / AUDIO: English\n\n\n\nSCREENSHOTS:\n-------------------    &lt;a href=&quot;\nhttp://someimage.com/3Cdx&quot; rel=&quot;nofollow&quot; target=&quot;_NEW&quot;&gt;\nhttp://someimage.com/3Cdx&lt;/a&gt;\n\n\n\nDirected by:\n-----------------\n\n- Jonathan auf der Heide (segment &quot;Fog&quot;)\n\n- Tony Ayres (segment &quot;Cockleshell&quot;)\n\n- Jub Clerc (segment &quot;Abbreviation&quot;)\n\n- Robert Connolly (segment &quot;Aquifer&quot;)\n\n- Shaun Gladwell (segment &quot;Family&quot;)\n\n- Rhys Graham (segment &quot;Small Mercies&quot;)\n\n- Justin Kurzel (segment &quot;Boner McPharlin's Moll&quot;)\n\n- Yaron Lifschitz (segment &quot;Immunity&quot;)\n\n- Anthony Lucas (segment &quot;Damaged Goods&quot;)\n\n- Claire McCarthy (segment &quot;The Turning&quot;)\n\n- Ian Meadows (segment &quot;Defender&quot;)\n\n- Ashlee Page (segment &quot;On Her Knees&quot;)\n\n- Stephen Pag (segment &quot;Sand&quot;)\n\n- Simon Stone (segment &quot;Reunion&quot;)\n\n- Warwick Thornton (segment &quot;Big World&quot;)\n\n- Marieka Walsh (segment &quot;Ash Wednesday&quot;)\n\n- Mia Wasikowska (segment &quot;Long, Clear View&quot;)\n\n- David Wenham (segment &quot;Commission&quot;) \n\n\nCAST: Cate Blanchett, Rose Byrne, Hugo Weaving, Miranda Otto, Richard Roxburgh,...\n\n\nPLOT:\n-----------\nA collection of short films based on stories by Australian writer Tim Winton.\n\n\n************************************\n\n- Duration: 2h 59mn\n\n- Bit rate: 1279 Kbps\n\n- Res: 720 x 404\n\n- AR: 16:9\n\n- FPS: 24.000\n\n- Audio: AC3, 2 channels, 128Kbps\n\n************************************\n\n\nGeneral\n-------------\nFormat : AVI\nFormat/Info : Audio Video Interleave\nFile size : 1.77 GiB\nDuration : 2h 59mn\nOverall bit rate : 1416 Kbps\nWriting library : VirtualDub build 35491\n\n\nVideo\n-----------\nFormat : MPEG-4 Visual\nFormat profile : Advanced Simple@L5\nFormat settings, BVOP : 2\nFormat settings, QPel : No\nFormat settings, GMC : No warppoints\nFormat settings, Matrix : Default (H.263)\nCodec ID : XVID\nCodec ID/Hint : XviD\nDuration : 2h 59mn\nBit rate : 1279 Kbps\nWidth : 720 pixels\nHeight : 404 pixels\nDisplay aspect ratio : 16:9\nFrame rate : 24.000 fps\nColor space : YUV\nChroma subsampling : 4:2:0\nBit depth : 8 bits\nScan type : Progressive\nCompression mode : Lossy\nBits/(Pixel*Frame) : 0.183\nStream size : 1.60 GiB (90%)\nWriting library : XviD 65\n\n\nAudio\n-------------\nFormat : AC-3\nFormat/Info : Audio Coding 3\nMode extension : CM (complete main)\nFormat settings, Endianness : Big\nCodec ID : 2000\nDuration : 2h 59mn\nBit rate mode : Constant\nBit rate : 128 Kbps\nChannel(s) : 2 channels\nChannel positions : Front: L R\nSampling rate : 48.0 KHz\nBit depth : 16 bits\nCompression mode : Lossy\nStream size : 164 MiB (9%)\nAlignment : Aligned on interleaves\nInterleave, duration : 42 ms (1.00 video frame)\nInterleave, preload duration : 512 ms","torrent":{"xt":"urn:btih:622b2ddcf0a1bd3dc2d2254e5e4cfb99c989df60","amp;dn":"The+Turning+2013+BRRip+XviD+titler","amp;tr":["udp%3A%2F%2Ftracker.openbittorrent.com%3A80","udp%3A%2F%2Fopen.demonii.com%3A1337","udp%3A%2F%2Ftracker.coppersurfer.tk%3A6969","udp%3A%2F%2Fexodus.desync.com%3A6969"],"infoHash":"622b2ddcf0a1bd3dc2d2254e5e4cfb99c989df60","infoHashBuffer":{"type":"Buffer","data":[98,43,45,220,240,161,189,61,194,210,37,78,94,76,251,153,201,137,223,96]},"announce":[],"urlList":[]}}